<svg width="1440" height="875" viewBox="0 0 1440 875" fill="none" xmlns="http://www.w3.org/2000/svg">
<mask id="mask0" mask-type="alpha" maskUnits="userSpaceOnUse" x="0" y="12" width="1440" height="863">
<rect y="12.7095" width="1440" height="862.291" fill="#C4C4C4"/>
</mask>
<g mask="url(#mask0)">
<path d="M315 704.399C126.6 653.17 -15.1667 746.276 -62.5 799.232V-62.081H1484C1507.5 272.928 1500.2 850.265 1489 856.913C1475 865.223 1376.5 874.022 1302.5 811.453C1242.69 760.884 1151.57 660.559 851.5 758.659C537.5 861.313 550.5 768.436 315 704.399Z" fill="#87C7CB"/>
</g>
<mask id="mask1" mask-type="alpha" maskUnits="userSpaceOnUse" x="0" y="0" width="1440" height="863">
<rect width="1440" height="862.291" fill="#C4C4C4"/>
</mask>
<g mask="url(#mask1)">
<g filter="url(#filter0_d)">
<path d="M300.5 670.67C112.1 619.441 -29.6667 712.547 -77 765.503V-95.8101H1469.5C1493 239.199 1485.7 816.536 1474.5 823.184C1460.5 831.494 1362 840.293 1288 777.723C1228.19 727.155 1137.07 626.83 837 724.93C523 827.584 536 734.707 300.5 670.67Z" fill="#008891"/>
</g>
</g>
<defs>
<filter id="filter0_d" x="-89" y="-96.8101" width="1586.03" height="948.819" filterUnits="userSpaceOnUse" color-interpolation-filters="sRGB">
<feFlood flood-opacity="0" result="BackgroundImageFix"/>
<feColorMatrix in="SourceAlpha" type="matrix" values="0 0 0 0 0 0 0 0 0 0 0 0 0 0 0 0 0 0 127 0"/>
<feOffset dy="11"/>
<feGaussianBlur stdDeviation="6"/>
<feColorMatrix type="matrix" values="0 0 0 0 0 0 0 0 0 0 0 0 0 0 0 0 0 0 0.25 0"/>
<feBlend mode="normal" in2="BackgroundImageFix" result="effect1_dropShadow"/>
<feBlend mode="normal" in="SourceGraphic" in2="effect1_dropShadow" result="shape"/>
</filter>
</defs>
</svg>
